<?xml version="1.0" standalone="no"?>
<!DOCTYPE svg PUBLIC "-//W3C//DTD SVG 1.1//EN" "http://www.w3.org/Graphics/SVG/1.1/DTD/svg11.dtd" >
<svg xmlns="http://www.w3.org/2000/svg">
<metadata></metadata>
<defs>
<font id="foundation_sans_ultra_lightIt" horiz-adv-x="1161" >
<font-face units-per-em="2048" ascent="1690" descent="-358" />
<missing-glyph horiz-adv-x="512" />
<glyph unicode="&#xfb01;" horiz-adv-x="962" d="M238 0l198 936h-155l6 33h155l29 131q21 100 38.5 141.5t53.5 73.5q58 55 172 55q29 0 45 -2l-6 -31q-82 0 -111 -5t-59 -23q-36 -23 -57.5 -63.5t-38.5 -119.5l-33 -157h199l-6 -33h-199l-199 -936h-32zM786 0l205 969h33l-205 -969h-33zM1034 1169l41 197h33l-41 -197 h-33z" />
<glyph unicode="&#xfb02;" horiz-adv-x="962" d="M238 0l198 936h-155l6 33h155l29 131q21 100 38.5 141.5t53.5 73.5q58 55 172 55q29 0 45 -2l-6 -31q-82 0 -111 -5t-59 -23q-36 -23 -57.5 -63.5t-38.5 -119.5l-33 -157h199l-6 -33h-199l-199 -936h-32zM786 0l289 1366h33l-289 -1366h-33z" />
<glyph unicode="&#xfb03;" horiz-adv-x="1513" d="M238 0l198 936h-155l6 33h155l29 131q21 100 38.5 141.5t53.5 73.5q58 55 172 55q29 0 45 -2l-6 -31q-82 0 -111 -5t-59 -23q-36 -23 -57.5 -63.5t-38.5 -119.5l-33 -157h516l29 131q21 100 38.5 141.5t53.5 73.5q61 55 174 55q29 0 45 -2l-6 -31q-85 0 -113 -4.5 t-59 -23.5q-36 -21 -57 -62.5t-39 -120.5l-33 -157h201l-6 -33h-201l-199 -936h-33l199 936h-516l-199 -936h-32zM1337 0l205 969h33l-205 -969h-33zM1585 1169l41 197h33l-41 -197h-33z" />
<glyph unicode="&#xfb04;" horiz-adv-x="1513" d="M238 0l198 936h-155l6 33h155l29 131q21 100 38.5 141.5t53.5 73.5q58 55 172 55q29 0 45 -2l-6 -31q-82 0 -111 -5t-59 -23q-36 -23 -57.5 -63.5t-38.5 -119.5l-33 -157h516l29 131q21 100 38.5 141.5t53.5 73.5q61 55 174 55q29 0 45 -2l-6 -31q-85 0 -113 -4.5 t-59 -23.5q-36 -21 -57 -62.5t-39 -120.5l-33 -157h201l-6 -33h-201l-199 -936h-33l199 936h-516l-199 -936h-32zM1337 0l289 1366h33l-289 -1366h-33z" />
<glyph horiz-adv-x="2048" />
<glyph horiz-adv-x="2048" />
<glyph unicode="&#xd;" horiz-adv-x="2048" />
<glyph unicode=" "  horiz-adv-x="512" />
<glyph unicode="&#x09;" horiz-adv-x="512" />
<glyph unicode="&#xa0;" horiz-adv-x="512" />
<glyph unicode="!" horiz-adv-x="331" d="M150 0l38 186h33l-39 -186h-32zM223 354l215 1012h33l-215 -1012h-33z" />
<glyph unicode="&#x22;" horiz-adv-x="610" d="M358 825l109 541h45l-121 -541h-33zM569 825l107 541h47l-123 -541h-31z" />
<glyph unicode="#" horiz-adv-x="1169" d="M168 469l14 33h203l176 436h-201l13 33h200l162 395h31l-160 -395h465l160 395h33l-162 -395h203l-13 -33h-202l-177 -436h203l-14 -33h-203l-190 -469h-31l188 469h-465l-188 -469h-33l191 469h-203zM418 502h463l178 436h-465z" />
<glyph unicode="$" d="M160 399h35l-5 -16q-40 -189 47.5 -278t325.5 -103l139 657q-124 27 -166.5 40.5t-78.5 35.5q-140 87 -103 256q32 151 162 239.5t328 96.5l28 137h33l-28 -137q222 -10 306 -103t40 -278h-35q40 171 -36.5 255t-281.5 93l-129 -606q255 -47 349.5 -130t62.5 -232 q-22 -106 -97 -187.5t-190 -124.5q-99 -37 -278 -45l-29 -139h-33l29 139q-249 6 -349 114.5t-46 315.5zM387 989q-17 -80 12 -141t101 -96q47 -23 211 -58l127 600q-177 -2 -299.5 -84.5t-151.5 -220.5zM596 0q98 3 163.5 15.5t127.5 39.5q93 41 154 112t81 161 q20 95 -17.5 158t-139.5 104q-62 24 -232 61z" />
<glyph unicode="%" horiz-adv-x="1314" d="M170 -53l1202 1439h45l-1202 -1441zM262 1030q32 149 131.5 235.5t237.5 86.5q132 0 192.5 -88.5t28.5 -235.5q-31 -145 -131.5 -234t-233.5 -89q-137 0 -197 86.5t-28 238.5zM295 1026q-29 -136 23.5 -212.5t175.5 -76.5q121 0 209 79.5t116 213.5q29 135 -23.5 212 t-172.5 77q-126 0 -212.5 -77.5t-115.5 -215.5zM750 303q32 151 130 237.5t236 86.5q134 0 193.5 -86t27.5 -234q-31 -150 -129 -238.5t-233 -88.5q-138 0 -197.5 85.5t-27.5 237.5zM782 301q-29 -138 23.5 -213.5t175.5 -75.5q121 0 208 79.5t118 217.5q28 132 -26 208.5 t-173 76.5q-129 0 -212 -75t-114 -218z" />
<glyph unicode="&#x26;" horiz-adv-x="1171" d="M150 319q31 156 206 281q73 54 258 156l-82 129q-71 113 -49 219q25 114 119 188t217 74q118 0 180 -73t37 -185q-14 -68 -58.5 -126t-129.5 -118q-42 -31 -184 -119l262 -450q74 113 100 235h37q-30 -137 -123 -270l150 -260h-39l-133 229q-106 -132 -214 -194t-235 -62 q-166 0 -258.5 100t-60.5 246zM182 322q-28 -132 57 -224t236 -92q134 0 262 90q43 28 76 61.5t88 100.5l-274 469q-186 -99 -273 -164q-145 -108 -172 -241zM516 1108q-10 -52 -0.5 -89.5t47.5 -100.5l84 -144q166 96 209 129q128 99 148 205q22 100 -32 162.5t-163 62.5 q-107 0 -189 -62.5t-104 -162.5z" />
<glyph unicode="'" horiz-adv-x="401" d="M358 825l109 541h45l-121 -541h-33z" />
<glyph unicode="(" horiz-adv-x="710" d="M479 594q44 209 131.5 392t247.5 400h35q-170 -238 -253.5 -411.5t-127.5 -384.5q-47 -222 -32 -421t95 -409h-40q-75 217 -88.5 415t32.5 419z" />
<glyph unicode=")" horiz-adv-x="710" d="M59 -240q170 238 253.5 412t127.5 385q47 221 32 420.5t-97 408.5h41q76 -218 89.5 -415t-32.5 -418q-44 -210 -132 -393.5t-249 -399.5h-33z" />
<glyph unicode="*" horiz-adv-x="747" d="M375 1182l16 30l205 -75l49 229h35l-49 -229l237 75l4 -30l-233 -78l102 -182l-30 -23l-107 186l-186 -186l-23 23l180 182z" />
<glyph unicode="+" d="M344 674l8 33h363l76 362h32l-75 -362h360l-8 -33h-361l-75 -361h-33l76 361h-363z" />
<glyph unicode="," horiz-adv-x="299" d="M33 -225l12 55q34 35 53 75t31 101l39 180h33l-37 -170q-17 -81 -43.5 -130t-87.5 -111z" />
<glyph unicode="-" horiz-adv-x="425" d="M98 469l8 33h426l-8 -33h-426z" />
<glyph unicode="." horiz-adv-x="305" d="M137 0l39 186h33l-39 -186h-33z" />
<glyph unicode="/" horiz-adv-x="813" d="M-76 -240l1067 1626h41l-1069 -1626h-39z" />
<glyph unicode="0" d="M227 643q66 310 240.5 499t394.5 189q107 0 193 -51.5t129 -140.5q86 -180 18 -512q-63 -297 -234.5 -475.5t-394.5 -178.5q-224 0 -317.5 181t-28.5 489zM260 643q-62 -294 24 -465.5t296 -171.5q209 0 368 168.5t221 452.5q67 315 -16 491q-41 84 -120.5 132t-178.5 48 q-206 0 -368.5 -179.5t-225.5 -475.5z" />
<glyph unicode="1" d="M496 1026l6 33q102 28 212 95t191 151h33l-276 -1305h-33l268 1272q-62 -75 -173.5 -143.5t-227.5 -102.5z" />
<glyph unicode="2" d="M141 0q23 60 47.5 101.5t59 82.5t96.5 86.5t138 95t204 126.5q227 136 339.5 251.5t137.5 237.5q31 145 -51.5 231t-249.5 86q-181 0 -306 -105.5t-165 -291.5l-6 -27h-33q3 27 6 35q41 193 179.5 307.5t332.5 114.5q179 0 269.5 -96.5t58.5 -251.5q-20 -93 -80 -174 t-176 -174q-74 -61 -131.5 -98.5t-237.5 -145.5q-189 -115 -265 -187t-115 -171h833l-6 -33h-879z" />
<glyph unicode="3" d="M213 442h39q-4 -16 -6 -18q-34 -157 14 -254q38 -78 121 -121t197 -43q189 0 330 103t175 264q23 104 -15.5 179t-129.5 107q-40 14 -95.5 20.5t-172.5 10.5l8 35h29q170 0 260 37q85 34 140.5 96t72.5 143q29 133 -56 215t-252 82q-232 0 -372 -149 q-48 -52 -76.5 -108.5t-48.5 -143.5h-37q28 108 64.5 174t99.5 123q158 137 379 137q179 0 271 -92t60 -238q-25 -121 -118 -197.5t-238 -96.5q79 -12 119.5 -27t71.5 -45q104 -94 69 -264q-37 -177 -187.5 -287.5t-353.5 -110.5q-137 0 -231 54t-129 153q-20 54 -20 113.5 t18 148.5z" />
<glyph unicode="4" d="M188 348l11 47l837 910h45l-196 -924h241l-6 -33h-241l-74 -348h-33l74 348h-658zM227 381h625l188 883z" />
<glyph unicode="5" d="M219 430h33q-8 -50 -12 -115q0 -155 114 -233q98 -66 232 -66q177 0 321.5 119t182.5 299q40 189 -51 306.5t-277 117.5q-123 0 -228 -51t-182 -148h-41l275 646h674l-9 -33h-645l-244 -561q171 180 404 180q203 0 297 -123q46 -60 62 -151t-3 -183q-41 -192 -197 -321 t-347 -129q-124 0 -218.5 52.5t-132.5 143.5q-42 108 -8 250z" />
<glyph unicode="6" d="M250 172q-32 74 -31.5 168t31.5 242q82 382 236 565.5t393 183.5q160 0 245 -84.5t88 -247.5h-32q-3 146 -82.5 222.5t-227.5 76.5q-162 0 -285 -94t-198 -278q-40 -93 -63 -173t-56 -241q35 90 73 142t103 102q154 116 330 116q122 0 212 -59.5t127.5 -162t12.5 -224.5 q-27 -125 -108 -229t-196.5 -164t-239.5 -60q-113 0 -202 53.5t-130 145.5zM258 422q-24 -113 11.5 -208.5t119.5 -151.5t197 -56q173 0 321 122t185 294q24 112 -11 208.5t-117 153t-192 56.5q-180 0 -328 -120.5t-186 -297.5z" />
<glyph unicode="7" d="M383 0q86 357 316.5 699t541.5 573h-811l8 33h836l-10 -50q-312 -233 -539 -571t-305 -684h-37z" />
<glyph unicode="8" d="M190 360q20 93 82 173t148 124q80 41 211 56q-75 11 -113 22.5t-67 32.5q-53 36 -74 101t-6 141q32 149 162.5 235t322.5 86q196 0 294 -89t67 -238q-17 -74 -64.5 -135.5t-118.5 -100.5q-69 -39 -192 -55q82 -10 125.5 -25t79.5 -45q53 -44 72 -122t-1 -167 q-37 -172 -188.5 -276.5t-364.5 -104.5q-198 0 -304 110t-71 277zM223 365q-34 -158 66 -258.5t289 -100.5q195 0 335 95t172 249q37 174 -53 260t-309 86q-198 0 -317 -75q-69 -42 -117.5 -110.5t-65.5 -145.5zM403 1008q-29 -135 57 -206t281 -71q183 0 299 70.5 t142 199.5q29 137 -61 217t-273 80q-178 0 -297 -77.5t-148 -212.5z" />
<glyph unicode="9" d="M225 305h31q5 -147 83.5 -223t225.5 -76q328 0 486 373q39 94 62.5 175t57.5 239q-38 -90 -76 -142t-102 -102q-72 -55 -159 -86t-172 -31q-121 0 -210.5 59.5t-127 162.5t-11.5 225q40 190 198 321t347 131q113 0 201.5 -53t128.5 -145q32 -72 32.5 -168t-30.5 -242 q-82 -383 -236 -566.5t-393 -183.5q-161 0 -247 84.5t-89 247.5zM346 881q-37 -171 60.5 -293.5t269.5 -122.5q170 0 318.5 123t185.5 295q24 111 -11.5 207t-118.5 152t-194 56q-179 0 -326 -120t-184 -297z" />
<glyph unicode=":" horiz-adv-x="305" d="M137 0l39 186h33l-39 -186h-33zM303 784l39 185h33l-39 -185h-33z" />
<glyph unicode=";" horiz-adv-x="299" d="M33 -225l12 55q34 35 53 75t31 101l39 180h33l-37 -170q-17 -81 -43.5 -130t-87.5 -111zM297 784l39 185h33l-39 -185h-33z" />
<glyph unicode="&#x3c;" horiz-adv-x="1024" d="M207 662l10 43l967 380l-8 -43l-918 -360l764 -360l-8 -41z" />
<glyph unicode="=" d="M317 549l9 33h755l-8 -33h-756zM371 799l8 32h756l-9 -32h-755z" />
<glyph unicode="&#x3e;" horiz-adv-x="1024" d="M129 281l8 41l916 360l-762 360l8 43l807 -380l-10 -43z" />
<glyph unicode="?" horiz-adv-x="956" d="M274 913q26 107 56.5 170.5t83.5 120.5q153 156 362 156q170 0 258.5 -94t57.5 -240q-20 -93 -75 -160t-208 -186q-130 -101 -169 -155t-62 -165l-3 -10h-32l6 27q22 104 68 165t184 167q128 98 184.5 166.5t73.5 146.5q28 135 -53.5 220t-239.5 85q-217 0 -350 -168 q-37 -45 -60 -98t-49 -148h-33zM469 0l39 186h33l-39 -186h-33z" />
<glyph unicode="@" horiz-adv-x="1443" d="M240 682q32 146 111 277.5t187 226t241.5 150t269.5 55.5q170 0 289 -79.5t166 -219.5t9 -314q-26 -124 -88.5 -236.5t-141.5 -179.5t-150 -67q-48 0 -69.5 41.5t-6.5 107.5q1 6 3.5 16.5t6.5 25.5t6 24q-155 -219 -391 -219q-129 0 -187 73t-32 201q19 90 67 181.5 t109 152.5q142 145 332 145q149 0 205 -96q22 -40 22 -117l76 191h33l-185 -471q-28 -66 -35 -98q-11 -57 6.5 -91t57.5 -34q89 0 192 141t138 311q36 167 -8 299t-157.5 205.5t-275.5 73.5q-130 0 -257 -52.5t-229 -143t-177 -216t-105 -266.5q-29 -136 -10.5 -258.5 t80.5 -216.5q130 -199 434 -199q119 0 226 24.5t249 84.5l4 -39q-235 -103 -483 -103q-305 0 -450 201q-69 96 -90.5 231t8.5 277zM498 571q-25 -112 29.5 -179.5t170.5 -67.5q163 0 293 121.5t170 312.5q25 114 -30 184t-170 70q-189 0 -324 -156q-46 -54 -85 -134 t-54 -151z" />
<glyph unicode="A" horiz-adv-x="1169" d="M14 0l848 1366h37l258 -1366h-39l-84 444h-706l-277 -444h-37zM350 477h674l-156 842z" />
<glyph unicode="B" horiz-adv-x="1265" d="M184 0l289 1366h512q211 0 313 -91t68 -249q-30 -146 -160 -242q-44 -31 -89 -48.5t-122 -30.5q82 -7 131 -27t91 -60q43 -41 58.5 -107.5t0.5 -143.5q-20 -91 -81 -169.5t-151 -129.5q-57 -30 -152.5 -49t-195.5 -19h-512zM223 33h479q237 0 359 80q146 96 182 254 q17 85 -8 154t-88 110q-88 59 -277 59h-508zM371 723h508q181 0 302.5 79.5t151.5 221.5q31 146 -63 227.5t-291 81.5h-479z" />
<glyph unicode="C" horiz-adv-x="1347" d="M211 676q45 211 158.5 374t276.5 253t349 90q146 0 255.5 -60t166.5 -170q26 -50 35.5 -97.5t9.5 -119.5h-35q-2 194 -117 304t-319 110q-271 0 -477 -188.5t-272 -497.5q-34 -162 -15.5 -281.5t90.5 -216.5q129 -170 371 -170q151 0 293.5 73t249.5 206 q45 54 72.5 107.5t52.5 133.5h33q-28 -96 -65.5 -163.5t-102.5 -137.5q-114 -122 -252.5 -187t-284.5 -65q-124 0 -225.5 46.5t-169.5 134.5q-148 197 -78 522z" />
<glyph unicode="D" horiz-adv-x="1306" d="M184 0l289 1366h401q166 0 271 -37.5t172 -120.5q66 -83 84.5 -221t-15.5 -301q-35 -162 -115 -301.5t-188 -228.5q-102 -84 -217 -120t-282 -36h-400zM223 33h357q183 0 300 39.5t218 136.5q191 179 258 485q35 166 12 298t-100 216q-63 67 -158.5 96t-255.5 29h-354z " />
<glyph unicode="E" horiz-adv-x="1247" d="M184 0l289 1366h911l-6 -33h-878l-129 -610h825l-8 -33h-826l-139 -657h879l-6 -33h-912z" />
<glyph unicode="F" horiz-adv-x="1173" d="M184 0l289 1366h846l-6 -33h-813l-129 -610h721l-9 -33h-721l-145 -690h-33z" />
<glyph unicode="G" horiz-adv-x="1413" d="M207 664q69 320 286 519t498 199q210 0 337.5 -120.5t137.5 -329.5h-30q-9 192 -130 305t-319 113q-177 0 -332 -85.5t-262.5 -241t-150.5 -357.5q-66 -311 80 -492q136 -168 391 -168q154 0 292 67.5t238 190.5q56 69 89 142.5t67 201.5h-537l6 33h570l-135 -641h-33 l84 397q-41 -85 -79 -137.5t-95 -103.5q-92 -85 -219 -134t-256 -49q-125 0 -234 47t-178 130q-154 190 -86 514z" />
<glyph unicode="H" horiz-adv-x="1398" d="M184 0l289 1366h33l-135 -641h964l135 641h33l-289 -1366h-32l145 692h-965l-145 -692h-33z" />
<glyph unicode="I" horiz-adv-x="454" d="M211 0l289 1366h32l-288 -1366h-33z" />
<glyph unicode="J" horiz-adv-x="987" d="M129 154q-8 45 -2 102.5t29 167.5h32l-14 -72q-37 -175 24 -260.5t222 -85.5q204 0 330 141q38 42 60.5 100.5t47.5 176.5l201 942h33l-211 -999q-23 -107 -58 -172t-98 -117q-127 -105 -311 -105q-118 0 -191.5 47t-93.5 134z" />
<glyph unicode="K" horiz-adv-x="1314" d="M184 0l289 1366h33l-176 -836l1130 836h49l-782 -578l535 -788h-41l-523 768l-379 -279l-102 -489h-33z" />
<glyph unicode="L" horiz-adv-x="1081" d="M184 0l289 1366h33l-283 -1333h809l-6 -33h-842z" />
<glyph unicode="M" horiz-adv-x="1656" d="M184 0l289 1366h55l306 -1331l874 1331h53l-288 -1366h-33l278 1319l-870 -1319h-43l-309 1319l-279 -1319h-33z" />
<glyph unicode="N" horiz-adv-x="1398" d="M184 0l289 1366h49l668 -1323l280 1323h33l-289 -1366h-45l-671 1329l-281 -1329h-33z" />
<glyph unicode="O" horiz-adv-x="1404" d="M211 684q68 315 285.5 512t500.5 197q185 0 310.5 -89t171.5 -250t2 -368q-70 -322 -289 -516q-222 -197 -506 -197q-181 0 -304.5 90t-168.5 252t-2 369zM244 684q-42 -197 0.5 -351.5t159 -240.5t288.5 -86q274 0 482 187q207 187 274 493q42 197 -1 350.5 t-161.5 238.5t-294.5 85q-270 0 -476 -187t-271 -489z" />
<glyph unicode="P" horiz-adv-x="1187" d="M184 0l289 1366h551q216 0 289 -106q37 -49 48.5 -118.5t-3.5 -142.5q-19 -87 -70.5 -161.5t-126.5 -124.5q-68 -45 -139 -63.5t-176 -18.5h-496l-133 -631h-33zM356 664h496q108 0 182 21t142 73q55 41 94.5 105t54.5 136q17 78 1 148.5t-60 114.5q-37 38 -99.5 54.5 t-171.5 16.5h-495z" />
<glyph unicode="Q" horiz-adv-x="1402" d="M209 666q69 326 286.5 526.5t501.5 200.5q185 0 310.5 -89t171.5 -250t2 -368q-35 -164 -109.5 -292t-202.5 -244l191 -154l-27 -31l-196 160q-201 -152 -439 -152q-140 0 -248 50.5t-171 142t-84 219t14 281.5zM240 664q-58 -278 55 -453q64 -98 170 -151.5t237 -53.5 q226 0 410 139l-205 162l25 29l213 -166q129 120 199 240.5t104 279.5q41 194 -2.5 347t-162 238t-292.5 85q-267 0 -476 -193t-275 -503z" />
<glyph unicode="R" horiz-adv-x="1277" d="M186 0l289 1366h500q133 0 208.5 -18.5t123.5 -61.5q108 -102 71 -282q-37 -164 -178 -263q-48 -33 -96 -50t-127 -29q100 -12 150.5 -39.5t74.5 -85.5q23 -68 20 -116.5t-40 -264.5q-3 -16 -4 -25q-10 -52 -11.5 -77t2.5 -54h-34q-3 56 10 131q28 162 36 221.5t5 96.5 q-7 105 -85.5 150.5t-252.5 45.5h-494l-135 -645h-33zM362 678h504q193 0 320.5 87t159.5 241q19 89 -5.5 160t-87.5 114q-42 30 -109.5 41.5t-201.5 11.5h-440z" />
<glyph unicode="S" horiz-adv-x="1255" d="M207 463l10 55h33l-12 -63q-46 -219 58 -334t351 -115q188 0 326 76q178 101 217 278q31 145 -64 215q-65 51 -225 95l-254 71q-143 41 -203 84q-49 35 -67.5 96t-3.5 134q32 156 174 247t354 91q171 0 275 -58t133 -170q15 -51 13 -92.5t-22 -138.5h-34q19 92 20.5 131 t-10.5 88q-23 98 -124.5 152.5t-258.5 54.5q-191 0 -324.5 -84t-162.5 -223q-13 -59 3 -111.5t56 -83.5q29 -24 68 -40.5t129 -43.5l256 -76q114 -33 158 -51.5t81 -48.5q46 -38 63.5 -101.5t2.5 -136.5q-37 -175 -198 -281t-390 -106q-258 0 -368.5 126t-59.5 364z" />
<glyph unicode="T" horiz-adv-x="1134" d="M338 1333l6 33h1026l-6 -33h-500l-282 -1333h-33l282 1333h-493z" />
<glyph unicode="U" horiz-adv-x="1384" d="M301 551l172 815h33l-172 -815q-33 -157 -27.5 -248.5t51.5 -161.5q92 -135 334 -135q269 0 420 164q64 68 103 154t69 227l172 815h33l-172 -815q-37 -173 -84.5 -268.5t-136.5 -169.5q-162 -140 -410 -140q-280 0 -373 170q-40 74 -43 161t31 247z" />
<glyph unicode="V" horiz-adv-x="1142" d="M303 1366h39l238 -1329l800 1329h39l-821 -1366h-47z" />
<glyph unicode="W" horiz-adv-x="1742" d="M303 1366h37l115 -1315l678 1315h59l119 -1333l671 1333h35l-688 -1366h-49l-123 1348l-694 -1348h-39z" />
<glyph unicode="X" horiz-adv-x="1210" d="M55 0l678 702l-358 664h43l342 -637l616 637h43l-643 -664l379 -702h-41l-366 674l-650 -674h-43z" />
<glyph unicode="Y" horiz-adv-x="1179" d="M303 1366h41l381 -760l690 760h41l-721 -788l-121 -578h-32l120 578z" />
<glyph unicode="Z" horiz-adv-x="1232" d="M109 0l10 49l1229 1284h-914l6 33h946l-8 -45l-1233 -1288h983l-6 -33h-1013z" />
<glyph unicode="[" horiz-adv-x="673" d="M307 -219l336 1585h291l-6 -33h-258l-324 -1519h258l-6 -33h-291z" />
<glyph unicode="\" horiz-adv-x="813" d="M362 1386h41l379 -1626h-39z" />
<glyph unicode="]" horiz-adv-x="673" d="M-20 -219l6 33h258l323 1519h-258l6 33h291l-336 -1585h-290z" />
<glyph unicode="^" horiz-adv-x="1024" d="M262 805l512 561h53l277 -561h-55l-256 530l-480 -530h-51z" />
<glyph unicode="_" horiz-adv-x="1024" d="M0 -170h1024v-43h-1024v43z" />
<glyph unicode="`" horiz-adv-x="1024" d="M489 1327h62l285 -201h-64z" />
<glyph unicode="a" horiz-adv-x="972" d="M113 246q19 89 82.5 155t166.5 101q50 18 121 27t238 18q75 4 113.5 14.5t60.5 30.5q12 12 17 23.5t12 48.5l8 36q17 78 7.5 125.5t-46.5 81.5q-68 56 -205 56q-157 0 -248.5 -66.5t-142.5 -216.5h-35q49 160 155 237.5t273 77.5q165 0 242 -77q35 -39 42.5 -88.5 t-11.5 -137.5l-115 -542q-18 -78 -7 -97.5t74 -19.5h37l-6 -33q-61 0 -83.5 2.5t-35.5 11.5q-23 15 -25.5 38t11.5 83l21 103q-83 -129 -196.5 -197t-246.5 -68q-151 0 -227.5 75.5t-50.5 197.5zM145 244q-23 -107 46 -172.5t206 -65.5q186 0 330 141q108 105 141 250 l37 178q-38 -37 -93 -48t-228 -19q-191 -9 -302 -76t-137 -188z" />
<glyph unicode="b" horiz-adv-x="1056" d="M143 0l289 1366h33l-139 -661q37 67 66 104t71 72q139 114 315 114q200 0 284.5 -139t33.5 -383q-51 -233 -191.5 -366.5t-335.5 -133.5q-197 0 -278 125q-25 35 -36 73.5t-19 109.5l-60 -281h-33zM281 494q-49 -225 30 -356.5t264 -131.5q177 0 309.5 125.5t176.5 335.5 q49 230 -29.5 363t-261.5 133q-175 0 -310 -129t-179 -340z" />
<glyph unicode="c" horiz-adv-x="964" d="M164 487q50 228 201.5 368t349.5 140q163 0 251 -85.5t68 -223.5h-35q20 123 -60.5 200t-229.5 77q-186 0 -326 -129t-184 -342q-47 -218 34 -352t261 -134q316 0 446 328h33q-31 -83 -63 -134t-83 -96q-66 -63 -155 -97t-183 -34q-194 0 -284 142.5t-41 371.5z" />
<glyph unicode="d" horiz-adv-x="1056" d="M162 473q51 244 194.5 383t343.5 139q85 0 155 -29.5t112 -84.5q28 -35 41 -72t22 -104l139 661h33l-289 -1366h-32l59 281q-39 -72 -66.5 -110.5t-66.5 -72.5q-137 -125 -332 -125q-197 0 -280.5 133.5t-32.5 366.5zM195 481q-46 -222 30.5 -348.5t257.5 -126.5 q183 0 319 132t183 356q44 210 -37 339.5t-256 129.5q-179 0 -314.5 -131.5t-182.5 -350.5z" />
<glyph unicode="e" horiz-adv-x="978" d="M162 473q49 236 200 379t351 143q118 0 200.5 -58.5t114.5 -164.5q29 -111 -8 -283l-4 -22h-819q-19 -99 -15 -169.5t33 -129.5q35 -78 108.5 -120t172.5 -42q149 0 267.5 88.5t178.5 243.5h35q-69 -172 -198.5 -268.5t-291.5 -96.5q-192 0 -282 138.5t-43 361.5z M203 500h784q17 70 20.5 111.5t-1.5 84.5q-15 127 -95 197t-209 70q-181 0 -313.5 -123t-185.5 -340z" />
<glyph unicode="f" horiz-adv-x="546" d="M238 0l198 936h-155l6 33h155l29 131q21 100 38.5 141.5t53.5 73.5q58 55 172 55q29 0 45 -2l-6 -31q-82 0 -111 -5t-59 -23q-36 -23 -57.5 -63.5t-38.5 -119.5l-33 -157h199l-6 -33h-199l-199 -936h-32z" />
<glyph unicode="g" horiz-adv-x="1036" d="M102 -57h35q-20 -131 51 -198t228 -67q210 0 332 125q47 47 77.5 115t53.5 176l51 236q-33 -59 -62 -94.5t-71 -69.5q-143 -111 -318 -111q-187 0 -271 126t-40 339q47 218 188.5 346.5t333.5 128.5q176 0 268 -121q21 -26 32.5 -55t23.5 -88l51 238h33l-187 -879 q-28 -132 -62.5 -201t-103.5 -129q-129 -114 -339 -114q-208 0 -279 112q-22 36 -28 76.5t3 108.5zM203 522q-43 -198 35 -316t251 -118q82 0 163.5 32t146.5 89q130 115 170 307q45 206 -39 326q-86 121 -252 121q-174 0 -304 -120.5t-171 -320.5z" />
<glyph unicode="h" horiz-adv-x="1021" d="M145 12l287 1354h33l-137 -647q44 70 74.5 106.5t70.5 69.5q127 100 279 100q90 0 157 -34t101 -97q28 -50 32 -109t-16 -149l-127 -606h-33l123 580q23 109 18.5 170.5t-38.5 111.5q-69 101 -226 101q-202 0 -346 -185q-43 -56 -68 -115.5t-44 -150.5l-109 -512z" />
<glyph unicode="i" horiz-adv-x="319" d="M143 0l205 969h33l-205 -969h-33zM391 1169l41 197h33l-41 -197h-33z" />
<glyph unicode="j" horiz-adv-x="342" d="M-113 -336l7 31q16 2 34 2q65 2 96.5 10t57.5 31q21 18 32.5 47t24.5 98l232 1086h32l-237 -1121q-13 -63 -35.5 -98t-62.5 -57q-33 -18 -68 -23.5t-113 -5.5zM414 1169l41 197h32l-41 -197h-32z" />
<glyph unicode="k" horiz-adv-x="942" d="M143 0l289 1366h33l-201 -946l797 549h47l-518 -361l352 -608h-39l-342 588l-305 -211l-80 -377h-33z" />
<glyph unicode="l" horiz-adv-x="319" d="M143 0l289 1366h33l-289 -1366h-33z" />
<glyph unicode="m" horiz-adv-x="1550" d="M143 0l205 969h33l-49 -230q66 120 156 188t221 68q72 0 128 -26.5t85 -73.5q18 -27 24 -55t6 -80q38 63 64.5 94.5t66.5 60.5q107 80 244 80q73 0 131.5 -27t89.5 -75q31 -46 34.5 -94t-15.5 -144l-140 -655h-32l139 655q18 86 12.5 139t-35.5 91q-62 78 -186 78 q-143 0 -250.5 -92.5t-138.5 -241.5l-133 -629h-33l133 629q22 100 19 154t-31 96q-59 84 -191 84q-146 0 -256.5 -109.5t-148.5 -292.5l-119 -561h-33z" />
<glyph unicode="n" horiz-adv-x="1021" d="M143 0l205 969h33l-53 -250q45 70 75.5 107.5t71.5 70.5q124 98 277 98q89 0 156.5 -33.5t101.5 -95.5q28 -52 32 -110.5t-16 -149.5l-127 -606h-33l123 580q23 109 18.5 170.5t-38.5 111.5q-69 101 -226 101q-202 0 -346 -185q-43 -56 -68 -115.5t-44 -150.5l-109 -512 h-33z" />
<glyph unicode="o" horiz-adv-x="1003" d="M164 485q50 229 201.5 369.5t349.5 140.5q203 0 290 -142.5t35 -389.5q-47 -224 -195 -357t-349 -133q-198 0 -290 141.5t-42 370.5zM197 485q-46 -216 37.5 -347.5t267.5 -131.5q188 0 324 123t182 334q49 232 -31.5 366t-269.5 134q-184 0 -324 -131.5t-186 -346.5z " />
<glyph unicode="p" horiz-adv-x="1056" d="M72 -328l276 1297h33l-59 -281q39 72 66.5 109.5t66.5 72.5q134 125 331 125q196 0 280 -133t34 -366q-53 -245 -196.5 -384t-342.5 -139q-177 0 -266 115q-28 35 -41.5 72.5t-22.5 103.5l-127 -592h-32zM276 475q-44 -211 36 -340t255 -129q180 0 316 131.5t182 351.5 q47 220 -30.5 347t-258.5 127q-183 0 -318 -131.5t-182 -356.5z" />
<glyph unicode="q" horiz-adv-x="1056" d="M166 496q49 233 190 366t336 133t279 -125q25 -35 36 -73t19 -109l59 281h33l-276 -1297h-33l127 592q-37 -67 -66 -104t-71 -72q-140 -115 -316 -115q-200 0 -284.5 139.5t-32.5 383.5zM201 502q-49 -230 28 -363t260 -133q175 0 311.5 129.5t180.5 339.5 q47 224 -33 356t-264 132q-177 0 -308 -125t-175 -336z" />
<glyph unicode="r" horiz-adv-x="567" d="M143 0l205 969h33l-62 -285q79 149 188.5 218t264.5 67l-6 -29q-99 -4 -160 -24t-123 -68q-155 -122 -207 -371l-100 -477h-33z" />
<glyph unicode="s" horiz-adv-x="940" d="M166 332h35q-34 -157 39.5 -241.5t242.5 -84.5q152 0 255 66.5t128 179.5q24 113 -63 162q-61 34 -203 69l-74 19q-122 32 -174 65q-84 58 -63 174q25 116 130 185t257 69q102 0 172.5 -29.5t99.5 -84.5q23 -38 25.5 -80t-12.5 -109h-33q13 69 8.5 111t-29.5 76 q-66 84 -243 84q-135 0 -227.5 -60t-112.5 -160q-19 -83 29 -128.5t186 -79.5l75 -19q183 -44 245 -101.5t40 -160.5q-28 -128 -143 -204.5t-279 -76.5q-183 0 -264 93t-47 266z" />
<glyph unicode="t" horiz-adv-x="591" d="M287 936l6 33h166l67 317h33l-67 -317h208l-6 -33h-209l-147 -686q-26 -128 -3 -170.5t120 -42.5h37l-7 -35h-39q-72 0 -106.5 19.5t-46.5 66.5q-13 42 12 162l148 686h-166z" />
<glyph unicode="u" horiz-adv-x="1005" d="M205 387l123 582h32l-122 -582q-38 -171 22 -270q69 -111 217 -111q85 0 167.5 39.5t148.5 112.5q51 54 78 112t49 158l114 541h33l-205 -969h-33l50 238q-62 -122 -170.5 -193.5t-233.5 -71.5q-87 0 -154 37t-102 103q-28 54 -31 117t17 157z" />
<glyph unicode="v" horiz-adv-x="860" d="M219 969h39l197 -934l559 934h39l-580 -969h-47z" />
<glyph unicode="w" horiz-adv-x="1435" d="M246 969h35l104 -942l514 942h51l105 -930l508 930h36l-528 -969h-47l-106 940l-510 -940h-52z" />
<glyph unicode="x" horiz-adv-x="976" d="M41 0l526 510l-280 459h41l270 -434l446 434h48l-476 -459l320 -510h-49l-299 485l-506 -485h-41z" />
<glyph unicode="y" horiz-adv-x="856" d="M57 -328l9 33q29 -2 55 -2q79 0 119 28.5t98 121.5l92 149l-211 967h39l199 -928l555 928h37l-668 -1112q-69 -115 -120 -151t-146 -36q-29 0 -58 2z" />
<glyph unicode="z" horiz-adv-x="927" d="M88 0l8 47l887 889h-645l6 33h684l-8 -43l-891 -893h735l-6 -33h-770z" />
<glyph unicode="{" horiz-adv-x="673" d="M362 557l9 33q73 23 108.5 67t55.5 136l55 262q35 163 78 219q31 43 82 67.5t108 24.5h25l-6 -33h-27q-86 0 -138 -53.5t-77 -167.5l-66 -311q-22 -95 -57 -145.5t-102 -82.5q56 -32 69.5 -82t-8.5 -145l-65 -311q-26 -122 12 -174q13 -20 44 -33.5t62 -13.5h29l-6 -33 h-25q-58 0 -99.5 25t-53.5 67q-17 62 16 219l55 262q20 92 3.5 136t-81.5 67z" />
<glyph unicode="|" horiz-adv-x="1024" d="M418 -342l362 1708h39l-362 -1708h-39z" />
<glyph unicode="}" horiz-adv-x="673" d="M35 -219l6 33h27q86 0 138 53.5t77 167.5l65 311q22 95 57 145t103 82q-56 32 -69.5 82.5t7.5 145.5l66 311q26 122 -12 174q-13 20 -44.5 33.5t-62.5 13.5h-28l6 33h24q58 0 100 -25t54 -67q17 -60 -17 -219l-55 -262q-20 -92 -3.5 -136t81.5 -67l-8 -33 q-73 -23 -108.5 -67t-55.5 -136l-55 -262q-35 -163 -78 -219q-31 -43 -82.5 -67.5t-108.5 -24.5h-24z" />
<glyph unicode="~" horiz-adv-x="1366" d="M463 1255q79 101 149.5 146t145.5 45q44 0 94.5 -20.5t128.5 -69.5q79 -48 120.5 -65t82.5 -17q66 0 124.5 40t135.5 136l29 -20q-79 -102 -148.5 -147.5t-146.5 -45.5q-49 0 -97 20.5t-163 90.5q-98 61 -168 61q-63 0 -123 -40.5t-133 -133.5z" />
<glyph unicode="&#xa1;" horiz-adv-x="331" d="M96 -246l215 1010h33l-215 -1010h-33zM346 934l41 186h33l-41 -186h-33z" />
<glyph unicode="&#xa2;" d="M305 682q47 222 189 357.5t342 150.5l34 168h33l-35 -168q155 -7 233 -91t66 -227h-34q9 129 -66 207.5t-207 75.5l-205 -962q296 15 418 331h37q-54 -161 -179 -260.5t-282 -105.5l-43 -201h-33l43 201q-99 6 -160.5 36t-105.5 93q-45 68 -57 172t12 223zM338 682 q-26 -121 -10.5 -225.5t69.5 -167.5q41 -47 91.5 -68.5t134.5 -27.5l204 962q-86 -7 -146.5 -29.5t-123.5 -70.5q-167 -129 -219 -373z" />
<glyph unicode="&#xa3;" d="M100 14q82 62 110.5 85.5t59.5 56.5q117 130 140 245q20 90 -13 230h-149l6 33h135q-9 18 -18 45q-48 118 -57.5 169.5t3.5 116.5q32 151 172.5 243.5t337.5 92.5q209 0 300.5 -106t50.5 -301l-7 -37h-32q20 103 16 162t-31 110q-77 139 -303 139q-189 0 -315.5 -83 t-157.5 -226q-11 -63 -3 -101.5t63 -176.5l18 -47h307l-6 -33h-293q31 -120 8 -228q-24 -108 -94.5 -200t-208.5 -189q97 55 141 69.5t109 14.5q77 0 174 -39q82 -35 115 -44t74 -9q142 0 323 160l17 -25q-85 -80 -175.5 -124t-171.5 -44q-79 0 -194 50q-107 43 -178 43 q-60 0 -116.5 -20t-135.5 -69z" />
<glyph unicode="&#xa4;" horiz-adv-x="1112" d="M100 215l158 131q-92 150 -47 359q44 207 186 346l-94 118l27 23l94 -117q168 139 391 139q219 0 328 -139l143 117l19 -23l-146 -118q83 -140 37 -365q-45 -211 -192 -346l98 -125l-29 -22l-98 124q-164 -127 -381 -127q-209 0 -318 132l-159 -129zM244 705 q-46 -217 52.5 -349.5t307.5 -132.5q211 0 362 124t195 333q50 234 -44.5 368t-309.5 134q-209 0 -364 -131t-199 -346z" />
<glyph unicode="&#xa5;" d="M315 537l9 32h366v6l-84 236h-231l6 33h213l-193 522h41l187 -522h266l399 522h41l-405 -522h205l-7 -33h-223l-182 -236v-6h354l-8 -32h-354l-113 -537h-33l113 537h-367zM641 811l72 -207l157 207h-229z" />
<glyph unicode="&#xa6;" horiz-adv-x="1024" d="M418 -342l139 655h39l-139 -655h-39zM641 711l139 655h39l-139 -655h-39z" />
<glyph unicode="&#xa7;" horiz-adv-x="931" d="M90 -80q-9 36 -8 74t16 104h35q-48 -145 32 -230t271 -85q149 0 256 74t133 194q21 110 -47 166q-28 23 -61 38t-111 38l-182 55q-235 72 -191 270q12 59 48.5 112t91.5 91q59 43 168 80q-75 24 -109 55q-80 73 -55 193q25 115 128.5 179.5t264.5 64.5q241 0 287 -111 q12 -29 12.5 -64.5t-8.5 -99.5h-31q19 145 -36 194.5t-232 49.5q-310 0 -354 -211q-21 -105 43 -172q17 -15 42.5 -26.5t94.5 -34.5l192 -64q125 -41 173.5 -102.5t29.5 -153.5q-27 -116 -123 -190q-51 -41 -186 -99q116 -38 159 -98.5t23 -157.5q-29 -136 -146.5 -218.5 t-281.5 -82.5q-138 0 -225.5 43t-112.5 125zM264 623q-20 -102 35 -170q22 -28 51.5 -42.5t104.5 -37.5l182 -54q6 3 13.5 6.5t13 7t6.5 3.5q87 38 117 54t57 38q88 73 106 166q19 83 -21.5 136.5t-146.5 88.5l-202 68q-275 -74 -316 -264z" />
<glyph unicode="&#xa8;" horiz-adv-x="1024" d="M539 1124l43 203h32l-43 -203h-32zM928 1124l43 203h33l-43 -203h-33z" />
<glyph unicode="&#xa9;" horiz-adv-x="1601" d="M240 682q31 146 115 277t199.5 226t260 150.5t291.5 55.5q187 0 327 -96t199 -259.5t19 -353.5q-40 -191 -169 -354t-311.5 -258t-373.5 -95q-115 0 -215.5 36t-172.5 100.5t-120.5 153.5t-59.5 194t11 223zM272 682q-38 -182 19.5 -337.5t193.5 -246t318 -90.5 t356.5 90.5t297.5 246t161 337.5q39 181 -17.5 337t-190.5 247.5t-312 91.5q-140 0 -278 -53t-248 -143t-190.5 -215.5t-109.5 -264.5zM600 686q38 181 162.5 294.5t284.5 113.5q95 0 164 -44t94 -120q13 -35 10 -101h-33q0 111 -62.5 171.5t-177.5 60.5 q-149 0 -261.5 -103.5t-149.5 -273.5q-34 -163 34 -265t212 -102q94 0 184.5 54t142.5 143q24 38 41 94h33q-16 -49 -23.5 -66t-23.5 -42q-60 -98 -159 -156.5t-202 -58.5q-157 0 -232.5 112t-37.5 289z" />
<glyph unicode="&#xaa;" horiz-adv-x="659" d="M209 696q10 55 50 95.5t103 62.5q51 17 220 27q65 3 84.5 14t27.5 47l6 23q15 77 -19 113t-124 36q-94 0 -145 -38t-80 -130h-35q32 104 96 152.5t170 48.5q103 0 150 -47q22 -23 26 -54t-8 -85l-67 -320q-10 -46 -1 -55t64 -8l-6 -33q-72 0 -88 15t-4 73l6 29 q-110 -134 -254 -134q-94 0 -141.5 46.5t-30.5 121.5zM242 696q-13 -61 27 -98t120 -37q97 0 175 64t98 161l18 88q-23 -15 -53 -19t-131 -9q-110 -4 -175 -43t-79 -107z" />
<glyph unicode="&#xab;" horiz-adv-x="622" d="M223 473l6 35l242 258l-14 -64l-199 -210l111 -209l-15 -62zM455 473l6 35l241 258l-14 -64l-199 -210l111 -209l-14 -62z" />
<glyph unicode="&#xac;" horiz-adv-x="1024" d="M174 510l8 37h887l-115 -547h-39l107 510h-848z" />
<glyph unicode="&#xad;" horiz-adv-x="425" d="M98 469l8 33h426l-8 -33h-426z" />
<glyph unicode="&#xae;" horiz-adv-x="1601" d="M240 682q31 146 115 277t199.5 226t260 150.5t291.5 55.5q187 0 327 -96t199 -259.5t19 -353.5q-40 -191 -169 -354t-311.5 -258t-373.5 -95q-115 0 -215.5 36t-172.5 100.5t-120.5 153.5t-59.5 194t11 223zM272 682q-38 -182 19.5 -337.5t193.5 -246t318 -90.5 t356.5 90.5t297.5 246t161 337.5q39 181 -17.5 337t-190.5 247.5t-312 91.5q-140 0 -278 -53t-248 -143t-190.5 -215.5t-109.5 -264.5zM582 301l166 778h286q77 0 119.5 -10.5t71.5 -36.5q62 -59 41 -164q-15 -72 -65.5 -122t-127.5 -70q58 -16 80.5 -43.5t22 -82.5 t-22.5 -169q-8 -46 -4 -80h-35q-2 25 6 80q22 127 22.5 165.5t-22.5 67.5q-36 45 -159 45h-271l-76 -358h-32zM696 692h275q106 0 174.5 46.5t87.5 129.5q18 101 -49 150q-24 17 -60.5 23t-111.5 6h-240z" />
<glyph unicode="&#xaf;" horiz-adv-x="1024" d="M473 1214l6 33h594l-6 -33h-594z" />
<glyph unicode="&#xb0;" horiz-adv-x="702" d="M299 1092q26 124 123 203t223 79q121 0 184 -80t37 -202t-123 -201.5t-221 -79.5q-123 0 -186 79.5t-37 201.5zM332 1092q-23 -109 32 -178.5t164 -69.5q110 0 196.5 69.5t109.5 178.5q23 108 -32 178.5t-163 70.5q-114 0 -199 -68.5t-108 -180.5z" />
<glyph unicode="&#xb1;" d="M229 129l7 33h755l-6 -33h-756zM344 674l8 33h363l76 362h32l-75 -362h360l-8 -33h-361l-75 -361h-33l76 361h-363z" />
<glyph unicode="&#xb2;" horiz-adv-x="763" d="M219 520q29 86 89.5 140.5t244.5 162.5q133 78 200 146t81 139q19 81 -30.5 130.5t-146.5 49.5q-106 0 -179 -60.5t-95 -166.5q-4 -12 -4 -25h-33q0 5 1 11l1 6q26 127 110.5 197.5t207.5 70.5q110 0 165 -59.5t35 -153.5q-19 -89 -96 -161.5t-281 -194.5 q-108 -65 -153.5 -106t-67.5 -93h500l-8 -33h-541z" />
<glyph unicode="&#xb3;" horiz-adv-x="763" d="M268 795h37q-4 -17 -8 -35q-22 -101 33 -162t164 -61q54 0 104 15.5t88.5 43t65 67t36.5 85.5q9 45 -2 81t-39.5 59t-72.5 30q-48 8 -135 10l6 35q82 0 131 8q67 12 113.5 51.5t58.5 95.5q15 77 -34.5 123.5t-147.5 46.5q-236 0 -291 -237h-35q12 53 23.5 81t33.5 58 q29 41 72.5 70.5t96 45t108.5 15.5q110 0 168 -56t39 -145q-13 -64 -61.5 -110t-123.5 -66q74 -15 107 -68.5t18 -130.5q-23 -107 -115 -174t-217 -67q-135 0 -195.5 79.5t-25.5 211.5z" />
<glyph unicode="&#xb4;" horiz-adv-x="1024" d="M664 1126l370 201h62l-369 -201h-63z" />
<glyph unicode="&#xb5;" d="M129 -328l277 1297h32l-104 -488q-12 -61 -8.5 -153t20.5 -146q58 -176 215 -176q79 0 161.5 40.5t147.5 111.5q51 54 78 112t49 158l115 541h33l-205 -969h-33l49 238q-58 -120 -166 -192.5t-227 -72.5q-121 0 -184.5 78t-75.5 234l-2 34l-139 -647h-33z" />
<glyph unicode="&#xb6;" horiz-adv-x="1064" d="M313 999q17 81 64.5 154t114.5 125q119 88 311 88h373l-326 -1530h-33l320 1497h-199l-320 -1497h-32l170 795h-86q-115 0 -182 22t-117 76q-93 104 -58 270z" />
<glyph unicode="&#xb7;" horiz-adv-x="278" d="M209 410l39 186h33l-39 -186h-33z" />
<glyph unicode="&#xb8;" horiz-adv-x="1024" d="M362 -477l11 45q45 34 62 64.5t32 101.5l27 131h32l-28 -135q-17 -84 -42 -122t-94 -85z" />
<glyph unicode="&#xb9;" horiz-adv-x="763" d="M416 1124l8 35q63 15 129 54t117 92h28l-168 -785h-32l157 737q-38 -40 -105 -77t-134 -56z" />
<glyph unicode="&#xba;" horiz-adv-x="669" d="M242 842q29 137 123 222t215 85q124 0 178 -87t22 -235q-28 -135 -119 -216t-215 -81q-121 0 -177 86t-27 226zM274 840q-28 -124 22 -200.5t157 -76.5q110 0 190 71.5t105 192.5q29 133 -19 211t-158 78q-107 0 -189 -76t-108 -200z" />
<glyph unicode="&#xbb;" horiz-adv-x="622" d="M127 221l14 62l201 209l-113 210l15 64l131 -258l-6 -35zM358 221l15 62l200 209l-112 210l14 64l131 -258l-6 -35z" />
<glyph unicode="&#xbc;" horiz-adv-x="1738" d="M416 1124l8 35q63 15 129 54t117 92h28l-168 -785h-32l157 737q-38 -40 -105 -77t-134 -56zM432 0l1163 1366h41l-1163 -1366h-41zM1112 205l8 37l506 542h37l-117 -546h146l-6 -33h-146l-43 -205h-33l43 205h-395zM1159 238h354l105 493z" />
<glyph unicode="&#xbd;" horiz-adv-x="1738" d="M416 1124l8 35q63 15 129 54t117 92h28l-168 -785h-32l157 737q-38 -40 -105 -77t-134 -56zM432 0l1163 1366h41l-1163 -1366h-41zM1085 0q32 89 90.5 142.5t241.5 160.5q133 78 200.5 146t82.5 139q17 81 -32 130.5t-146 49.5q-106 0 -179.5 -60.5t-95.5 -166.5 q-4 -12 -4 -25h-33q0 5 1 10l1 6q26 127 110.5 198t207.5 71q110 0 166 -59.5t37 -153.5q-20 -89 -97 -161t-282 -196q-109 -65 -154 -105.5t-67 -92.5h499l-6 -33h-541z" />
<glyph unicode="&#xbe;" horiz-adv-x="1738" d="M268 795h37q-4 -17 -8 -35q-22 -101 33 -162t164 -61q54 0 104 15.5t88.5 43t65 67t36.5 85.5q9 45 -2 81t-39.5 59t-72.5 30q-48 8 -135 10l6 35q82 0 131 8q67 12 113.5 51.5t58.5 95.5q15 77 -34.5 123.5t-147.5 46.5q-236 0 -291 -237h-35q12 53 23.5 81t33.5 58 q29 41 72.5 70.5t96 45t108.5 15.5q110 0 168 -56t39 -145q-13 -64 -61.5 -110t-123.5 -66q74 -15 107 -68.5t18 -130.5q-23 -107 -115 -174t-217 -67q-135 0 -195.5 79.5t-25.5 211.5zM432 0l1165 1366h39l-1163 -1366h-41zM1112 205l8 37l506 542h37l-117 -546h146l-6 -33 h-146l-43 -205h-33l43 205h-395zM1159 238h354l105 493z" />
<glyph unicode="&#xbf;" horiz-adv-x="956" d="M100 96q20 92 75 158.5t208 185.5q93 72 134.5 115t61.5 87.5t37 127.5h33q-26 -125 -72.5 -189.5t-185.5 -168.5q-126 -96 -182.5 -165.5t-73.5 -148.5q-29 -135 52 -219t241 -84q214 0 350 168q36 43 59 96t48 148h33q-25 -107 -55.5 -170t-84.5 -119 q-71 -75 -164 -115.5t-196 -40.5q-170 0 -259.5 94t-58.5 240zM651 934l41 186h33l-41 -186h-33z" />
<glyph unicode="&#xc0;" horiz-adv-x="1169" d="M14 0l848 1366h37l258 -1366h-39l-84 444h-706l-277 -444h-37zM350 477h674l-156 842zM623 1710h61l285 -201h-64z" />
<glyph unicode="&#xc1;" horiz-adv-x="1169" d="M14 0l848 1366h37l258 -1366h-39l-84 444h-706l-277 -444h-37zM350 477h674l-156 842zM860 1509l371 201h61l-368 -201h-64z" />
<glyph unicode="&#xc2;" horiz-adv-x="1169" d="M14 0l848 1366h37l258 -1366h-39l-84 444h-706l-277 -444h-37zM350 477h674l-156 842zM621 1507l315 203h45l233 -203h-57l-207 176l-272 -176h-57z" />
<glyph unicode="&#xc3;" horiz-adv-x="1169" d="M14 0l848 1366h37l258 -1366h-39l-84 444h-706l-277 -444h-37zM350 477h674l-156 842zM684 1544q26 68 71.5 109t94.5 41q53 0 117 -64q61 -61 104 -61q65 0 119 117h35q-26 -70 -68 -108t-92 -38q-54 0 -111 57q-40 39 -62.5 52.5t-47.5 13.5q-76 0 -125 -119h-35z" />
<glyph unicode="&#xc4;" horiz-adv-x="1169" d="M14 0l848 1366h37l258 -1366h-39l-84 444h-706l-277 -444h-37zM350 477h674l-156 842zM707 1507l43 201h32l-43 -201h-32zM1096 1507l43 201h32l-43 -201h-32z" />
<glyph unicode="&#xc5;" horiz-adv-x="1169" d="M14 0l848 1366h37l258 -1366h-39l-84 444h-706l-277 -444h-37zM350 477h674l-156 842zM786 1618q13 63 64.5 104t116.5 41q63 0 94.5 -41t17.5 -104q-12 -63 -62.5 -104t-115.5 -41q-63 0 -95 41t-20 104zM819 1618q-9 -50 16 -81.5t74 -31.5q51 0 90 32t48 81 q11 50 -14.5 81.5t-74.5 31.5q-51 0 -89.5 -31.5t-49.5 -81.5z" />
<glyph unicode="&#xc6;" horiz-adv-x="1826" d="M14 0l820 1366h1173l-6 -33h-838l-131 -612h748l-6 -33h-748l-139 -655h837l-6 -33h-870l94 449h-623l-268 -449h-37zM340 481h608l182 852h-280z" />
<glyph unicode="&#xc7;" horiz-adv-x="1347" d="M211 676q45 211 158.5 374t276.5 253t349 90q146 0 255.5 -60t166.5 -170q26 -50 35.5 -97.5t9.5 -119.5h-35q-2 194 -117 304t-319 110q-271 0 -477 -188.5t-272 -497.5q-34 -162 -15.5 -281.5t90.5 -216.5q129 -170 371 -170q151 0 293.5 73t249.5 206 q45 54 72.5 107.5t52.5 133.5h33q-28 -96 -65.5 -163.5t-102.5 -137.5q-114 -122 -252.5 -187t-284.5 -65q-124 0 -225.5 46.5t-169.5 134.5q-148 197 -78 522zM506 -494l10 50q46 31 64.5 63.5t35.5 112.5l31 143h33l-31 -143q-22 -99 -48.5 -141.5t-94.5 -84.5z" />
<glyph unicode="&#xc8;" horiz-adv-x="1247" d="M184 0l289 1366h911l-6 -33h-878l-129 -610h825l-8 -33h-826l-139 -657h879l-6 -33h-912zM688 1710h62l284 -201h-63z" />
<glyph unicode="&#xc9;" horiz-adv-x="1247" d="M184 0l289 1366h911l-6 -33h-878l-129 -610h825l-8 -33h-826l-139 -657h879l-6 -33h-912zM891 1509l371 201h61l-369 -201h-63z" />
<glyph unicode="&#xca;" horiz-adv-x="1247" d="M184 0l289 1366h911l-6 -33h-878l-129 -610h825l-8 -33h-826l-139 -657h879l-6 -33h-912zM686 1507l315 203h46l233 -203h-57l-207 176l-273 -176h-57z" />
<glyph unicode="&#xcb;" horiz-adv-x="1247" d="M184 0l289 1366h911l-6 -33h-878l-129 -610h825l-8 -33h-826l-139 -657h879l-6 -33h-912zM766 1507l43 201h33l-43 -201h-33zM1155 1507l43 201h33l-43 -201h-33z" />
<glyph unicode="&#xcc;" horiz-adv-x="454" d="M211 0l289 1366h32l-288 -1366h-33zM266 1710h62l284 -201h-63z" />
<glyph unicode="&#xcd;" horiz-adv-x="454" d="M211 0l289 1366h32l-288 -1366h-33zM502 1509l370 201h62l-369 -201h-63z" />
<glyph unicode="&#xce;" horiz-adv-x="454" d="M211 0l289 1366h32l-288 -1366h-33zM256 1507l315 203h45l234 -203h-57l-207 176l-273 -176h-57z" />
<glyph unicode="&#xcf;" horiz-adv-x="454" d="M211 0l289 1366h32l-288 -1366h-33zM479 1507l43 201h33l-43 -201h-33zM596 1507l43 201h33l-43 -201h-33z" />
<glyph unicode="&#xd0;" horiz-adv-x="1306" d="M184 0l146 690h-137l8 33h137l135 643h401q165 0 271 -37.5t172 -120.5q65 -84 82.5 -222.5t-17.5 -301.5q-34 -161 -113.5 -300t-189.5 -230q-100 -82 -215 -118t-280 -36h-400zM223 33h357q181 0 298 39.5t218 134.5q193 184 256 485q36 168 13.5 300t-99.5 216 q-63 67 -158.5 96t-255.5 29h-352l-129 -610h655l-8 -33h-656z" />
<glyph unicode="&#xd1;" horiz-adv-x="1398" d="M184 0l289 1366h49l668 -1323l280 1323h33l-289 -1366h-45l-671 1329l-281 -1329h-33zM819 1544q26 68 71.5 109t94.5 41q53 0 117 -64q61 -61 104 -61q65 0 119 117h35q-26 -70 -68 -108t-92 -38q-53 0 -110 57q-40 38 -63 52t-48 14q-76 0 -125 -119h-35z" />
<glyph unicode="&#xd2;" horiz-adv-x="1404" d="M211 684q68 315 285.5 512t500.5 197q185 0 310.5 -89t171.5 -250t2 -368q-70 -322 -289 -516q-222 -197 -506 -197q-181 0 -304.5 90t-168.5 252t-2 369zM244 684q-42 -197 0.5 -351.5t159 -240.5t288.5 -86q274 0 482 187q207 187 274 493q42 197 -1 350.5 t-161.5 238.5t-294.5 85q-270 0 -476 -187t-271 -489zM739 1710h62l284 -201h-63z" />
<glyph unicode="&#xd3;" horiz-adv-x="1404" d="M211 684q68 315 285.5 512t500.5 197q185 0 310.5 -89t171.5 -250t2 -368q-70 -322 -289 -516q-222 -197 -506 -197q-181 0 -304.5 90t-168.5 252t-2 369zM244 684q-42 -197 0.5 -351.5t159 -240.5t288.5 -86q274 0 482 187q207 187 274 493q42 197 -1 350.5 t-161.5 238.5t-294.5 85q-270 0 -476 -187t-271 -489zM969 1509l370 201h62l-369 -201h-63z" />
<glyph unicode="&#xd4;" horiz-adv-x="1404" d="M211 684q68 315 285.5 512t500.5 197q185 0 310.5 -89t171.5 -250t2 -368q-70 -322 -289 -516q-222 -197 -506 -197q-181 0 -304.5 90t-168.5 252t-2 369zM244 684q-42 -197 0.5 -351.5t159 -240.5t288.5 -86q274 0 482 187q207 187 274 493q42 197 -1 350.5 t-161.5 238.5t-294.5 85q-270 0 -476 -187t-271 -489zM737 1507l316 203h45l233 -203h-57l-207 176l-272 -176h-58z" />
<glyph unicode="&#xd5;" horiz-adv-x="1404" d="M211 684q68 315 285.5 512t500.5 197q185 0 310.5 -89t171.5 -250t2 -368q-70 -322 -289 -516q-222 -197 -506 -197q-181 0 -304.5 90t-168.5 252t-2 369zM244 684q-42 -197 0.5 -351.5t159 -240.5t288.5 -86q274 0 482 187q207 187 274 493q42 197 -1 350.5 t-161.5 238.5t-294.5 85q-270 0 -476 -187t-271 -489zM813 1544q26 68 71.5 109t94.5 41q53 0 117 -64q61 -61 104 -61q65 0 119 117h35q-26 -70 -68 -108t-92 -38q-54 0 -111 57q-40 39 -62.5 52.5t-47.5 13.5q-76 0 -125 -119h-35z" />
<glyph unicode="&#xd6;" horiz-adv-x="1404" d="M211 684q68 315 285.5 512t500.5 197q185 0 310.5 -89t171.5 -250t2 -368q-70 -322 -289 -516q-222 -197 -506 -197q-181 0 -304.5 90t-168.5 252t-2 369zM244 684q-42 -197 0.5 -351.5t159 -240.5t288.5 -86q274 0 482 187q207 187 274 493q42 197 -1 350.5 t-161.5 238.5t-294.5 85q-270 0 -476 -187t-271 -489zM823 1507l43 201h33l-43 -201h-33zM1212 1507l43 201h33l-43 -201h-33z" />
<glyph unicode="&#xd7;" d="M301 358l404 332l-263 334l27 23l262 -334l404 334l18 -23l-403 -334l262 -332l-29 -22l-260 332l-406 -332z" />
<glyph unicode="&#xd8;" horiz-adv-x="1402" d="M96 35l172 155q-66 127 -77.5 233.5t22.5 264.5q67 319 283 510q106 94 234.5 144.5t260.5 50.5q262 0 406 -181l143 131l19 -24l-144 -131q66 -106 81 -226t-19 -280q-69 -330 -289 -520q-104 -91 -233.5 -140t-264.5 -49t-232 46.5t-171 144.5l-170 -152zM246 690 q-32 -152 -20 -258t73 -215l1071 971q-135 172 -387 172q-123 0 -247 -50t-224 -139q-202 -184 -266 -481zM313 190q82 -101 167 -142.5t214 -41.5q130 0 253 46.5t222 133.5q210 182 273 488q62 293 -56 489z" />
<glyph unicode="&#xd9;" horiz-adv-x="1384" d="M301 551l172 815h33l-172 -815q-33 -157 -27.5 -248.5t51.5 -161.5q92 -135 334 -135q269 0 420 164q64 68 103 154t69 227l172 815h33l-172 -815q-37 -173 -84.5 -268.5t-136.5 -169.5q-162 -140 -410 -140q-280 0 -373 170q-40 74 -43 161t31 247zM758 1710h61 l285 -201h-64z" />
<glyph unicode="&#xda;" horiz-adv-x="1384" d="M301 551l172 815h33l-172 -815q-33 -157 -27.5 -248.5t51.5 -161.5q92 -135 334 -135q269 0 420 164q64 68 103 154t69 227l172 815h33l-172 -815q-37 -173 -84.5 -268.5t-136.5 -169.5q-162 -140 -410 -140q-280 0 -373 170q-40 74 -43 161t31 247zM946 1509l371 201h61 l-368 -201h-64z" />
<glyph unicode="&#xdb;" horiz-adv-x="1384" d="M301 551l172 815h33l-172 -815q-33 -157 -27.5 -248.5t51.5 -161.5q92 -135 334 -135q269 0 420 164q64 68 103 154t69 227l172 815h33l-172 -815q-37 -173 -84.5 -268.5t-136.5 -169.5q-162 -140 -410 -140q-280 0 -373 170q-40 74 -43 161t31 247zM741 1507l316 203h45 l233 -203h-57l-207 176l-272 -176h-58z" />
<glyph unicode="&#xdc;" horiz-adv-x="1384" d="M301 551l172 815h33l-172 -815q-33 -157 -27.5 -248.5t51.5 -161.5q92 -135 334 -135q269 0 420 164q64 68 103 154t69 227l172 815h33l-172 -815q-37 -173 -84.5 -268.5t-136.5 -169.5q-162 -140 -410 -140q-280 0 -373 170q-40 74 -43 161t31 247zM821 1507l43 201h33 l-43 -201h-33zM1210 1507l43 201h33l-43 -201h-33z" />
<glyph unicode="&#xdd;" horiz-adv-x="1179" d="M303 1366h41l381 -760l690 760h41l-721 -788l-121 -578h-32l120 578zM887 1509l370 201h62l-369 -201h-63z" />
<glyph unicode="&#xde;" horiz-adv-x="1187" d="M184 0l289 1366h33l-35 -164h518q216 0 289 -106q37 -49 48.5 -118t-3.5 -142q-19 -88 -70.5 -162.5t-126.5 -124.5q-68 -45 -139 -63.5t-176 -18.5h-496l-98 -467h-33zM322 500h495q108 0 182 21t142 73q55 41 94.5 105.5t54.5 136.5q17 78 1 148t-60 114 q-37 38 -99 54.5t-171 16.5h-496z" />
<glyph unicode="&#xdf;" horiz-adv-x="962" d="M143 0l219 1040q23 105 57 165.5t95 107.5q107 80 248 80q158 0 239 -91.5t50 -236.5q-23 -112 -101.5 -188.5t-201.5 -108.5q73 -14 112.5 -29.5t69.5 -42.5q100 -89 55 -301q-28 -125 -96 -216.5t-168 -137.5q-54 -25 -113 -33t-188 -8l6 37l78 -2q103 -3 173.5 20 t129.5 76q108 97 145 268q28 127 -2 204t-121 112q-41 17 -95.5 24t-155.5 9l8 34q152 -3 243 43q74 38 123 101t66 141q28 130 -44.5 211.5t-215.5 81.5q-165 0 -269 -113q-40 -43 -58 -86t-40 -145l-215 -1016h-33z" />
<glyph unicode="&#xe0;" horiz-adv-x="972" d="M113 246q19 89 82.5 155t166.5 101q50 18 121 27t238 18q75 4 113.5 14.5t60.5 30.5q12 12 17 23.5t12 48.5l8 36q17 78 7.5 125.5t-46.5 81.5q-68 56 -205 56q-157 0 -248.5 -66.5t-142.5 -216.5h-35q49 160 155 237.5t273 77.5q165 0 242 -77q35 -39 42.5 -88.5 t-11.5 -137.5l-115 -542q-18 -78 -7 -97.5t74 -19.5h37l-6 -33q-61 0 -83.5 2.5t-35.5 11.5q-23 15 -25.5 38t11.5 83l21 103q-83 -129 -196.5 -197t-246.5 -68q-151 0 -227.5 75.5t-50.5 197.5zM145 244q-23 -107 46 -172.5t206 -65.5q186 0 330 141q108 105 141 250 l37 178q-38 -37 -93 -48t-228 -19q-191 -9 -302 -76t-137 -188zM436 1327h62l284 -201h-63z" />
<glyph unicode="&#xe1;" horiz-adv-x="972" d="M113 246q19 89 82.5 155t166.5 101q50 18 121 27t238 18q75 4 113.5 14.5t60.5 30.5q12 12 17 23.5t12 48.5l8 36q17 78 7.5 125.5t-46.5 81.5q-68 56 -205 56q-157 0 -248.5 -66.5t-142.5 -216.5h-35q49 160 155 237.5t273 77.5q165 0 242 -77q35 -39 42.5 -88.5 t-11.5 -137.5l-115 -542q-18 -78 -7 -97.5t74 -19.5h37l-6 -33q-61 0 -83.5 2.5t-35.5 11.5q-23 15 -25.5 38t11.5 83l21 103q-83 -129 -196.5 -197t-246.5 -68q-151 0 -227.5 75.5t-50.5 197.5zM145 244q-23 -107 46 -172.5t206 -65.5q186 0 330 141q108 105 141 250 l37 178q-38 -37 -93 -48t-228 -19q-191 -9 -302 -76t-137 -188zM686 1126l371 201h61l-368 -201h-64z" />
<glyph unicode="&#xe2;" horiz-adv-x="972" d="M113 246q19 89 82.5 155t166.5 101q50 18 121 27t238 18q75 4 113.5 14.5t60.5 30.5q12 12 17 23.5t12 48.5l8 36q17 78 7.5 125.5t-46.5 81.5q-68 56 -205 56q-157 0 -248.5 -66.5t-142.5 -216.5h-35q49 160 155 237.5t273 77.5q165 0 242 -77q35 -39 42.5 -88.5 t-11.5 -137.5l-115 -542q-18 -78 -7 -97.5t74 -19.5h37l-6 -33q-61 0 -83.5 2.5t-35.5 11.5q-23 15 -25.5 38t11.5 83l21 103q-83 -129 -196.5 -197t-246.5 -68q-151 0 -227.5 75.5t-50.5 197.5zM145 244q-23 -107 46 -172.5t206 -65.5q186 0 330 141q108 105 141 250 l37 178q-38 -37 -93 -48t-228 -19q-191 -9 -302 -76t-137 -188zM446 1126l318 205h45l231 -205h-57l-205 179l-274 -179h-58z" />
<glyph unicode="&#xe3;" horiz-adv-x="972" d="M113 246q19 89 82.5 155t166.5 101q50 18 121 27t238 18q75 4 113.5 14.5t60.5 30.5q12 12 17 23.5t12 48.5l8 36q17 78 7.5 125.5t-46.5 81.5q-68 56 -205 56q-157 0 -248.5 -66.5t-142.5 -216.5h-35q49 160 155 237.5t273 77.5q165 0 242 -77q35 -39 42.5 -88.5 t-11.5 -137.5l-115 -542q-18 -78 -7 -97.5t74 -19.5h37l-6 -33q-61 0 -83.5 2.5t-35.5 11.5q-23 15 -25.5 38t11.5 83l21 103q-83 -129 -196.5 -197t-246.5 -68q-151 0 -227.5 75.5t-50.5 197.5zM145 244q-23 -107 46 -172.5t206 -65.5q186 0 330 141q108 105 141 250 l37 178q-38 -37 -93 -48t-228 -19q-191 -9 -302 -76t-137 -188zM494 1161q26 68 72.5 109t95.5 41q29 0 53.5 -14t60.5 -50q61 -61 107 -61q33 0 60.5 28t57.5 89h35q-28 -71 -69 -108.5t-90 -37.5q-57 0 -111 57q-41 38 -64.5 52t-48.5 14q-76 0 -125 -119h-34z" />
<glyph unicode="&#xe4;" horiz-adv-x="972" d="M113 246q19 89 82.5 155t166.5 101q50 18 121 27t238 18q75 4 113.5 14.5t60.5 30.5q12 12 17 23.5t12 48.5l8 36q17 78 7.5 125.5t-46.5 81.5q-68 56 -205 56q-157 0 -248.5 -66.5t-142.5 -216.5h-35q49 160 155 237.5t273 77.5q165 0 242 -77q35 -39 42.5 -88.5 t-11.5 -137.5l-115 -542q-18 -78 -7 -97.5t74 -19.5h37l-6 -33q-61 0 -83.5 2.5t-35.5 11.5q-23 15 -25.5 38t11.5 83l21 103q-83 -129 -196.5 -197t-246.5 -68q-151 0 -227.5 75.5t-50.5 197.5zM145 244q-23 -107 46 -172.5t206 -65.5q186 0 330 141q108 105 141 250 l37 178q-38 -37 -93 -48t-228 -19q-191 -9 -302 -76t-137 -188zM541 1124l43 203h32l-43 -203h-32zM930 1124l43 203h33l-43 -203h-33z" />
<glyph unicode="&#xe5;" horiz-adv-x="972" d="M113 246q19 89 82.5 155t166.5 101q50 18 121 27t238 18q75 4 113.5 14.5t60.5 30.5q12 12 17 23.5t12 48.5l8 36q17 78 7.5 125.5t-46.5 81.5q-68 56 -205 56q-157 0 -248.5 -66.5t-142.5 -216.5h-35q49 160 155 237.5t273 77.5q165 0 242 -77q35 -39 42.5 -88.5 t-11.5 -137.5l-115 -542q-18 -78 -7 -97.5t74 -19.5h37l-6 -33q-61 0 -83.5 2.5t-35.5 11.5q-23 15 -25.5 38t11.5 83l21 103q-83 -129 -196.5 -197t-246.5 -68q-151 0 -227.5 75.5t-50.5 197.5zM145 244q-23 -107 46 -172.5t206 -65.5q186 0 330 141q108 105 141 250 l37 178q-38 -37 -93 -48t-228 -19q-191 -9 -302 -76t-137 -188zM608 1237q14 63 64 104t114 41q63 0 95.5 -41t19.5 -104q-14 -63 -64 -104t-114 -41q-63 0 -95.5 41t-19.5 104zM641 1237q-11 -50 14 -81.5t74 -31.5q51 0 89.5 31.5t49.5 81.5t-14 81.5t-74 31.5 q-51 0 -89.5 -31.5t-49.5 -81.5z" />
<glyph unicode="&#xe6;" horiz-adv-x="1701" d="M113 248q20 90 83.5 154.5t165.5 99.5q52 17 125 26.5t234 18.5q76 5 114.5 14t59.5 29q18 18 33 94q20 91 12.5 140t-47.5 83q-68 56 -205 56q-157 0 -248.5 -66.5t-142.5 -216.5h-35q50 160 155.5 237.5t274.5 77.5q166 0 240 -77q37 -39 45 -87.5t-12 -138.5 q49 93 108 152q75 72 170 111.5t193 39.5q118 0 200.5 -58.5t114.5 -164.5q29 -108 -8 -283l-4 -22h-821q-19 -101 -15 -170t33 -129q37 -78 110 -120t173 -42q149 0 267.5 88.5t178.5 243.5h35q-69 -172 -198.5 -268.5t-291.5 -96.5q-106 0 -185 46.5t-122 132.5 q-24 49 -37 155q-31 -69 -52.5 -103.5t-57.5 -70.5q-74 -77 -169 -118.5t-196 -41.5q-151 0 -227.5 76t-50.5 199zM145 246q-23 -107 46.5 -173.5t205.5 -66.5q186 0 330 141q113 113 141 252l37 176q-38 -37 -93 -48t-228 -19q-386 -18 -439 -262zM924 500h786 q15 74 19 111t0 85q-15 127 -95 197t-211 70q-181 0 -313.5 -123t-185.5 -340z" />
<glyph unicode="&#xe7;" horiz-adv-x="964" d="M164 487q50 228 201.5 368t349.5 140q163 0 251 -85.5t68 -223.5h-35q20 123 -60.5 200t-229.5 77q-186 0 -326 -129t-184 -342q-47 -218 34 -352t261 -134q316 0 446 328h33q-31 -83 -63 -134t-83 -96q-66 -63 -155 -97t-183 -34q-194 0 -284 142.5t-41 371.5zM319 -477 l11 45q45 34 62 64.5t32 101.5l27 131h32l-28 -135q-17 -84 -42 -122t-94 -85z" />
<glyph unicode="&#xe8;" horiz-adv-x="978" d="M162 473q49 236 200 379t351 143q118 0 200.5 -58.5t114.5 -164.5q29 -111 -8 -283l-4 -22h-819q-19 -99 -15 -169.5t33 -129.5q35 -78 108.5 -120t172.5 -42q149 0 267.5 88.5t178.5 243.5h35q-69 -172 -198.5 -268.5t-291.5 -96.5q-192 0 -282 138.5t-43 361.5z M203 500h784q17 70 20.5 111.5t-1.5 84.5q-15 127 -95 197t-209 70q-181 0 -313.5 -123t-185.5 -340zM444 1327h62l285 -201h-64z" />
<glyph unicode="&#xe9;" horiz-adv-x="978" d="M162 473q49 236 200 379t351 143q118 0 200.5 -58.5t114.5 -164.5q29 -111 -8 -283l-4 -22h-819q-19 -99 -15 -169.5t33 -129.5q35 -78 108.5 -120t172.5 -42q149 0 267.5 88.5t178.5 243.5h35q-69 -172 -198.5 -268.5t-291.5 -96.5q-192 0 -282 138.5t-43 361.5z M203 500h784q17 70 20.5 111.5t-1.5 84.5q-15 127 -95 197t-209 70q-181 0 -313.5 -123t-185.5 -340zM688 1126l371 201h61l-368 -201h-64z" />
<glyph unicode="&#xea;" horiz-adv-x="978" d="M162 473q49 236 200 379t351 143q118 0 200.5 -58.5t114.5 -164.5q29 -111 -8 -283l-4 -22h-819q-19 -99 -15 -169.5t33 -129.5q35 -78 108.5 -120t172.5 -42q149 0 267.5 88.5t178.5 243.5h35q-69 -172 -198.5 -268.5t-291.5 -96.5q-192 0 -282 138.5t-43 361.5z M203 500h784q17 70 20.5 111.5t-1.5 84.5q-15 127 -95 197t-209 70q-181 0 -313.5 -123t-185.5 -340zM457 1126l317 205h45l232 -205h-58l-205 179l-274 -179h-57z" />
<glyph unicode="&#xeb;" horiz-adv-x="978" d="M162 473q49 236 200 379t351 143q118 0 200.5 -58.5t114.5 -164.5q29 -111 -8 -283l-4 -22h-819q-19 -99 -15 -169.5t33 -129.5q35 -78 108.5 -120t172.5 -42q149 0 267.5 88.5t178.5 243.5h35q-69 -172 -198.5 -268.5t-291.5 -96.5q-192 0 -282 138.5t-43 361.5z M203 500h784q17 70 20.5 111.5t-1.5 84.5q-15 127 -95 197t-209 70q-181 0 -313.5 -123t-185.5 -340zM537 1124l43 203h32l-43 -203h-32zM926 1124l43 203h32l-43 -203h-32z" />
<glyph unicode="&#xec;" horiz-adv-x="319" d="M109 1327h61l285 -201h-64zM143 0l205 969h33l-205 -969h-33z" />
<glyph unicode="&#xed;" horiz-adv-x="319" d="M143 0l205 969h33l-205 -969h-33zM358 1126l371 201h62l-369 -201h-64z" />
<glyph unicode="&#xee;" horiz-adv-x="319" d="M106 1126l318 205h45l231 -205h-57l-205 179l-274 -179h-58zM143 0l205 969h33l-205 -969h-33z" />
<glyph unicode="&#xef;" horiz-adv-x="319" d="M145 0l205 969h33l-205 -969h-33zM324 1124l43 203h32l-43 -203h-32zM453 1124l43 203h32l-43 -203h-32z" />
<glyph unicode="&#xf0;" horiz-adv-x="1003" d="M164 485q50 229 201.5 369.5t349.5 140.5q144 0 241 -84q-53 141 -186 334l-203 -133l-16 25l201 133q-80 116 -107 160l29 18l108 -160l201 133l12 -24l-196 -131q72 -107 109 -172t69 -142q63 -147 77 -251t-14 -232q-47 -228 -194 -362t-350 -134q-198 0 -290 141.5 t-42 370.5zM197 485q-46 -216 37.5 -347.5t267.5 -131.5q188 0 324 123t182 334q49 232 -31.5 366t-269.5 134q-184 0 -324 -131.5t-186 -346.5z" />
<glyph unicode="&#xf1;" horiz-adv-x="1021" d="M143 0l205 969h33l-53 -250q45 70 75.5 107.5t71.5 70.5q124 98 277 98q89 0 156.5 -33.5t101.5 -95.5q28 -52 32 -110.5t-16 -149.5l-127 -606h-33l123 580q23 109 18.5 170.5t-38.5 111.5q-69 101 -226 101q-202 0 -346 -185q-43 -56 -68 -115.5t-44 -150.5l-109 -512 h-33zM541 1161q26 68 72.5 109t95.5 41q29 0 53.5 -14t60.5 -50q61 -61 107 -61q33 0 61 28t58 89h34q-28 -71 -69 -108.5t-90 -37.5q-57 0 -111 57q-41 38 -64.5 52t-48.5 14q-76 0 -125 -119h-34z" />
<glyph unicode="&#xf2;" horiz-adv-x="1003" d="M164 485q50 229 201.5 369.5t349.5 140.5q203 0 290 -142.5t35 -389.5q-47 -224 -195 -357t-349 -133q-198 0 -290 141.5t-42 370.5zM197 485q-46 -216 37.5 -347.5t267.5 -131.5q188 0 324 123t182 334q49 232 -31.5 366t-269.5 134q-184 0 -324 -131.5t-186 -346.5z M451 1327h61l285 -201h-64z" />
<glyph unicode="&#xf3;" horiz-adv-x="1003" d="M164 485q50 229 201.5 369.5t349.5 140.5q203 0 290 -142.5t35 -389.5q-47 -224 -195 -357t-349 -133q-198 0 -290 141.5t-42 370.5zM197 485q-46 -216 37.5 -347.5t267.5 -131.5q188 0 324 123t182 334q49 232 -31.5 366t-269.5 134q-184 0 -324 -131.5t-186 -346.5z M700 1126l371 201h62l-369 -201h-64z" />
<glyph unicode="&#xf4;" horiz-adv-x="1003" d="M164 485q50 229 201.5 369.5t349.5 140.5q203 0 290 -142.5t35 -389.5q-47 -224 -195 -357t-349 -133q-198 0 -290 141.5t-42 370.5zM197 485q-46 -216 37.5 -347.5t267.5 -131.5q188 0 324 123t182 334q49 232 -31.5 366t-269.5 134q-184 0 -324 -131.5t-186 -346.5z M455 1126l317 205h45l232 -205h-58l-205 179l-274 -179h-57z" />
<glyph unicode="&#xf5;" horiz-adv-x="1003" d="M164 485q50 229 201.5 369.5t349.5 140.5q203 0 290 -142.5t35 -389.5q-47 -224 -195 -357t-349 -133q-198 0 -290 141.5t-42 370.5zM197 485q-46 -216 37.5 -347.5t267.5 -131.5q188 0 324 123t182 334q49 232 -31.5 366t-269.5 134q-184 0 -324 -131.5t-186 -346.5z M539 1161q26 68 72.5 109t95.5 41q29 0 53.5 -14t60.5 -50q61 -61 107 -61q33 0 61 28t58 89h34q-28 -71 -69 -108.5t-90 -37.5q-57 0 -111 57q-41 38 -64.5 52t-48.5 14q-76 0 -125 -119h-34z" />
<glyph unicode="&#xf6;" horiz-adv-x="1003" d="M164 485q50 229 201.5 369.5t349.5 140.5q203 0 290 -142.5t35 -389.5q-47 -224 -195 -357t-349 -133q-198 0 -290 141.5t-42 370.5zM197 485q-46 -216 37.5 -347.5t267.5 -131.5q188 0 324 123t182 334q49 232 -31.5 366t-269.5 134q-184 0 -324 -131.5t-186 -346.5z M549 1124l43 203h33l-43 -203h-33zM938 1124l43 203h33l-43 -203h-33z" />
<glyph unicode="&#xf7;" d="M344 674l8 33h756l-8 -33h-756zM610 373q4 20 22 34.5t38 14.5t31.5 -14.5t7.5 -34.5t-22 -34.5t-38 -14.5t-31.5 14.5t-7.5 34.5zM741 991q4 20 22 34.5t38 14.5t31.5 -14.5t7.5 -34.5q-3 -20 -21 -34.5t-39 -14.5q-20 0 -31 14t-8 35z" />
<glyph unicode="&#xf8;" horiz-adv-x="1011" d="M70 41l125 111q-34 80 -39.5 158t16.5 179q50 227 201.5 366.5t349.5 139.5q98 0 166 -32.5t127 -106.5l108 96l23 -26l-117 -99q34 -82 39 -163t-18 -189q-50 -232 -196.5 -367t-348.5 -135q-199 0 -297 148l-119 -105zM207 492q-44 -197 18 -316l760 655 q-51 68 -117.5 100t-158.5 32q-180 0 -319 -130t-183 -341zM238 147q50 -75 113.5 -108t160.5 -33q186 0 323 124.5t181 336.5q42 199 -15 336z" />
<glyph unicode="&#xf9;" horiz-adv-x="1005" d="M205 387l123 582h32l-122 -582q-38 -171 22 -270q69 -111 217 -111q85 0 167.5 39.5t148.5 112.5q51 54 78 112t49 158l114 541h33l-205 -969h-33l50 238q-62 -122 -170.5 -193.5t-233.5 -71.5q-87 0 -154 37t-102 103q-28 54 -31 117t17 157zM459 1327h61l285 -201h-64z " />
<glyph unicode="&#xfa;" horiz-adv-x="1005" d="M205 387l123 582h32l-122 -582q-38 -171 22 -270q69 -111 217 -111q85 0 167.5 39.5t148.5 112.5q51 54 78 112t49 158l114 541h33l-205 -969h-33l50 238q-62 -122 -170.5 -193.5t-233.5 -71.5q-87 0 -154 37t-102 103q-28 54 -31 117t17 157zM696 1126l371 201h61 l-368 -201h-64z" />
<glyph unicode="&#xfb;" horiz-adv-x="1005" d="M205 387l123 582h32l-122 -582q-38 -171 22 -270q69 -111 217 -111q85 0 167.5 39.5t148.5 112.5q51 54 78 112t49 158l114 541h33l-205 -969h-33l50 238q-62 -122 -170.5 -193.5t-233.5 -71.5q-87 0 -154 37t-102 103q-28 54 -31 117t17 157zM457 1126l317 205h45 l232 -205h-58l-205 179l-274 -179h-57z" />
<glyph unicode="&#xfc;" horiz-adv-x="1005" d="M205 387l123 582h32l-122 -582q-38 -171 22 -270q69 -111 217 -111q85 0 167.5 39.5t148.5 112.5q51 54 78 112t49 158l114 541h33l-205 -969h-33l50 238q-62 -122 -170.5 -193.5t-233.5 -71.5q-87 0 -154 37t-102 103q-28 54 -31 117t17 157zM543 1124l43 203h32 l-43 -203h-32zM932 1124l43 203h33l-43 -203h-33z" />
<glyph unicode="&#xfd;" horiz-adv-x="856" d="M57 -328l9 33q29 -2 55 -2q79 0 119 28.5t98 121.5l92 149l-211 967h39l199 -928l555 928h37l-668 -1112q-69 -115 -120 -151t-146 -36q-29 0 -58 2zM643 1126l371 201h61l-368 -201h-64z" />
<glyph unicode="&#xfe;" horiz-adv-x="1056" d="M72 -328l360 1694h33l-143 -678q64 119 133 182q134 125 331 125q196 0 280 -133t34 -366q-53 -245 -196.5 -384t-342.5 -139q-177 0 -266 115q-28 35 -41.5 72.5t-22.5 103.5l-127 -592h-32zM276 475q-44 -211 36 -340t255 -129q180 0 316 131.5t182 351.5 q47 220 -30.5 347t-258.5 127q-183 0 -318 -131.5t-182 -356.5z" />
<glyph unicode="&#xff;" horiz-adv-x="856" d="M57 -328l9 33q29 -2 55 -2q79 0 119 28.5t98 121.5l92 149l-211 967h39l199 -928l555 928h37l-668 -1112q-69 -115 -120 -151t-146 -36q-29 0 -58 2zM483 1124l43 203h33l-43 -203h-33zM872 1124l43 203h33l-43 -203h-33z" />
<glyph unicode="&#x152;" horiz-adv-x="2123" d="M209 668q33 157 110.5 292t183.5 230t239 149t274 54q234 0 381 -156l26 129h881l-6 -33h-848l-131 -612h756l-7 -33h-755l-139 -655h847l-6 -33h-880l28 141q-110 -88 -219 -128t-237 -40q-134 0 -243.5 52.5t-178.5 150.5q-140 195 -76 492zM244 682q-42 -197 3 -351 t167 -239.5t301 -85.5q250 0 456 176l218 1018q-86 86 -173.5 123t-207.5 37q-271 0 -485 -190t-279 -488z" />
<glyph unicode="&#x153;" horiz-adv-x="1720" d="M162 475q51 241 191 380.5t331 139.5q101 0 175 -40.5t108 -114.5q31 -65 28 -176q66 155 189 243t274 88q141 0 230.5 -82t93.5 -217q0 -93 -29 -231h-778q-22 -102 -23 -168t19 -121q28 -83 97.5 -126.5t174.5 -43.5q296 0 440 313h39q-34 -79 -69 -130t-88 -95 q-143 -121 -328 -121q-160 0 -241 90t-72 256q-139 -346 -449 -346q-195 0 -279 134.5t-34 367.5zM195 475q-46 -217 30 -343t254 -126q171 0 293.5 123.5t169.5 343.5q51 239 -17.5 364.5t-250.5 125.5q-175 0 -303.5 -130.5t-175.5 -357.5zM981 498h745q43 172 5 282 q-26 85 -100 134t-177 49q-104 0 -200 -51t-162 -142q-76 -110 -111 -272z" />
<glyph unicode="&#x178;" horiz-adv-x="1179" d="M303 1366h41l381 -760l690 760h41l-721 -788l-121 -578h-32l120 578zM719 1507l43 201h33l-43 -201h-33zM1108 1507l43 201h33l-43 -201h-33z" />
<glyph unicode="&#x2c6;" horiz-adv-x="1024" d="M453 1126l317 205h45l232 -205h-58l-205 179l-274 -179h-57z" />
<glyph unicode="&#x2dc;" horiz-adv-x="1024" d="M502 1161q26 68 72.5 109t95.5 41q29 0 53.5 -14t60.5 -50q61 -61 107 -61q33 0 61 28t58 89h34q-28 -71 -69 -108.5t-90 -37.5q-57 0 -111 57q-42 39 -65 52.5t-47 13.5q-76 0 -125 -119h-35z" />
<glyph unicode="&#x2000;" horiz-adv-x="881" />
<glyph unicode="&#x2001;" horiz-adv-x="1763" />
<glyph unicode="&#x2002;" horiz-adv-x="881" />
<glyph unicode="&#x2003;" horiz-adv-x="1763" />
<glyph unicode="&#x2004;" horiz-adv-x="587" />
<glyph unicode="&#x2005;" horiz-adv-x="440" />
<glyph unicode="&#x2006;" horiz-adv-x="293" />
<glyph unicode="&#x2007;" horiz-adv-x="293" />
<glyph unicode="&#x2008;" horiz-adv-x="220" />
<glyph unicode="&#x2009;" horiz-adv-x="352" />
<glyph unicode="&#x200a;" horiz-adv-x="97" />
<glyph unicode="&#x2010;" horiz-adv-x="425" d="M98 469l8 33h426l-8 -33h-426z" />
<glyph unicode="&#x2011;" horiz-adv-x="425" d="M98 469l8 33h426l-8 -33h-426z" />
<glyph unicode="&#x2012;" horiz-adv-x="425" d="M98 469l8 33h426l-8 -33h-426z" />
<glyph unicode="&#x2013;" horiz-adv-x="1021" d="M242 469l8 33h756l-9 -33h-755z" />
<glyph unicode="&#x2014;" horiz-adv-x="1275" d="M98 469l8 33h1276l-8 -33h-1276z" />
<glyph unicode="&#x2018;" horiz-adv-x="296" d="M346 991l37 170q22 102 46 146t87 100l-12 -55q-38 -39 -54 -75t-34 -116l-37 -170h-33z" />
<glyph unicode="&#x2019;" horiz-adv-x="243" d="M283 952l12 56q62 67 86 178l37 180h33l-35 -170q-19 -82 -45.5 -131t-87.5 -113z" />
<glyph unicode="&#x201a;" horiz-adv-x="243" d="M33 -225l12 55q34 35 53 75t31 101l39 180h33l-37 -170q-17 -81 -43.5 -130t-87.5 -111z" />
<glyph unicode="&#x201c;" horiz-adv-x="487" d="M346 991l37 170q22 102 46 146t87 100l-12 -55q-38 -39 -54 -75t-34 -116l-37 -170h-33zM537 991l36 170q21 102 45.5 146t88.5 100l-13 -55q-38 -39 -54 -75t-34 -116l-37 -170h-32z" />
<glyph unicode="&#x201d;" horiz-adv-x="487" d="M283 950l12 56q37 40 54 76.5t34 113.5l35 170h33l-35 -170q-23 -103 -46.5 -147t-86.5 -99zM473 950l12 56q37 40 54 76.5t34 113.5l35 170h33l-35 -170q-23 -103 -46.5 -147t-86.5 -99z" />
<glyph unicode="&#x201e;" horiz-adv-x="495" d="M31 -236l12 54q66 74 88 174l41 192h33l-41 -190q-31 -141 -133 -230zM223 -240l13 60q68 73 88 176l41 188h32l-39 -182q-37 -163 -135 -242z" />
<glyph unicode="&#x2022;" horiz-adv-x="1366" d="M547 692q26 120 127 202.5t221 82.5q115 0 179.5 -84t39.5 -201t-125 -199.5t-217 -82.5q-118 0 -184 82.5t-41 199.5z" />
<glyph unicode="&#x2026;" horiz-adv-x="915" d="M137 0l39 186h33l-39 -186h-33zM442 0l39 186h33l-39 -186h-33zM748 0l38 186h33l-39 -186h-32z" />
<glyph unicode="&#x202f;" horiz-adv-x="352" />
<glyph unicode="&#x2039;" horiz-adv-x="403" d="M238 473l6 35l241 258l-14 -64l-199 -210l111 -209l-14 -62z" />
<glyph unicode="&#x203a;" horiz-adv-x="403" d="M127 221l14 62l201 209l-113 210l15 64l131 -258l-6 -35z" />
<glyph unicode="&#x205f;" horiz-adv-x="440" />
<glyph unicode="&#x20ac;" horiz-adv-x="1423" d="M225 631l23 35h121q2 19 8 34h-137l22 35h123q82 298 292.5 478t477.5 180q301 0 424 -230l-25 -37q-47 113 -151.5 173.5t-251.5 60.5q-173 0 -327.5 -83t-264.5 -235q-85 -116 -141 -307h891l-23 -35h-878l-7 -34h865l-23 -35h-848q-38 -216 31 -369q57 -124 166 -190 t256 -66q146 0 282.5 66.5t243.5 189.5l-12 -57q-232 -232 -518 -232q-173 0 -294.5 83.5t-171 233.5t-16.5 341h-137z" />
<glyph unicode="&#x2122;" horiz-adv-x="1562" d="M307 1333l6 33h588l-6 -33h-279l-157 -745h-33l158 745h-277zM858 588l164 778h43l170 -735l483 735h39l-164 -778h-32l149 712l-467 -712h-35l-168 712l-149 -712h-33z" />
<glyph unicode="&#xe000;" horiz-adv-x="972" d="M0 0v973h973v-973h-973z" />
</font>
</defs>
</svg>
